<svg xmlns="http://www.w3.org/2000/svg" xmlns:xlink="http://www.w3.org/1999/xlink" width="165" zoomAndPan="magnify" viewBox="0 0 123.75 37.5" height="50" preserveAspectRatio="xMidYMid meet" version="1.0"><defs><g/></defs><g fill="#38b6ff" fill-opacity="1"><g transform="translate(5.479686, 24.201752)"><g><path d="M 6.875 -0.84375 C 6.75 -0.882812 6.539062 -0.941406 6.25 -1.015625 C 5.957031 -1.085938 5.695312 -1.175781 5.46875 -1.28125 C 5.25 -1.382812 5.023438 -1.523438 4.796875 -1.703125 C 4.722656 -1.753906 4.609375 -1.816406 4.453125 -1.890625 C 4.054688 -2.117188 3.753906 -2.3125 3.546875 -2.46875 C 3.335938 -2.625 3.132812 -2.84375 2.9375 -3.125 L 2.296875 -3.90625 L 2.078125 -4.96875 C 2.191406 -4.988281 2.296875 -5.023438 2.390625 -5.078125 C 2.484375 -5.128906 2.535156 -5.15625 2.546875 -5.15625 C 2.679688 -5.21875 2.882812 -5.34375 3.15625 -5.53125 C 3.71875 -5.90625 4.285156 -6.253906 4.859375 -6.578125 C 6.210938 -7.273438 7.03125 -7.765625 7.3125 -8.046875 C 7.375 -8.117188 7.453125 -8.175781 7.546875 -8.21875 C 7.648438 -8.257812 7.742188 -8.28125 7.828125 -8.28125 C 7.910156 -8.3125 8.039062 -8.253906 8.21875 -8.109375 C 8.394531 -7.960938 8.5 -7.875 8.53125 -7.84375 C 8.601562 -7.789062 8.675781 -7.738281 8.75 -7.6875 C 8.832031 -7.644531 8.882812 -7.609375 8.90625 -7.578125 C 8.9375 -7.546875 8.957031 -7.5 8.96875 -7.4375 C 8.96875 -7.394531 8.945312 -7.320312 8.90625 -7.21875 C 8.875 -7.113281 8.816406 -7.023438 8.734375 -6.953125 C 8.546875 -6.796875 8.125 -6.546875 7.46875 -6.203125 C 6.582031 -5.742188 5.90625 -5.367188 5.4375 -5.078125 C 5.207031 -4.941406 4.953125 -4.804688 4.671875 -4.671875 C 4.484375 -4.554688 4.359375 -4.476562 4.296875 -4.4375 C 4.234375 -4.394531 4.203125 -4.316406 4.203125 -4.203125 L 4.234375 -4.046875 C 4.460938 -3.773438 4.835938 -3.503906 5.359375 -3.234375 C 5.878906 -2.960938 6.613281 -2.679688 7.5625 -2.390625 C 8.1875 -2.191406 8.613281 -2 8.84375 -1.8125 C 9.082031 -1.632812 9.203125 -1.429688 9.203125 -1.203125 L 9.1875 -1.046875 C 9.125 -0.941406 8.96875 -0.847656 8.71875 -0.765625 C 8.46875 -0.691406 8.195312 -0.65625 7.90625 -0.65625 C 7.5 -0.65625 7.15625 -0.71875 6.875 -0.84375 Z M 6.875 -0.84375 "/></g></g></g><g fill="#d9d9d9" fill-opacity="1"><g transform="translate(13.892514, 24.201752)"><g><path d="M 13.03125 -11.46875 C 13.039062 -11.414062 13.046875 -11.347656 13.046875 -11.265625 C 13.046875 -11.097656 12.96875 -10.972656 12.8125 -10.890625 C 12.726562 -10.859375 12.570312 -10.804688 12.34375 -10.734375 C 12.113281 -10.671875 11.925781 -10.640625 11.78125 -10.640625 C 11.664062 -10.640625 11.570312 -10.648438 11.5 -10.671875 C 11.375 -10.785156 11.21875 -10.867188 11.03125 -10.921875 C 10.84375 -10.984375 10.457031 -11.03125 9.875 -11.0625 C 9.707031 -11.039062 9.554688 -11.03125 9.421875 -11.03125 C 9.296875 -11.03125 9.191406 -11.023438 9.109375 -11.015625 C 9.003906 -10.671875 8.875 -10.347656 8.71875 -10.046875 C 8.664062 -9.796875 8.59375 -9.570312 8.5 -9.375 C 8.40625 -9.101562 8.363281 -8.953125 8.375 -8.921875 C 8.34375 -8.859375 8.21875 -8.519531 8 -7.90625 C 7.789062 -7.300781 7.59375 -6.707031 7.40625 -6.125 C 7.28125 -5.71875 7.179688 -5.421875 7.109375 -5.234375 C 7.046875 -5.109375 6.960938 -4.898438 6.859375 -4.609375 C 6.765625 -4.328125 6.695312 -4.128906 6.65625 -4.015625 L 6.171875 -2.65625 C 6.066406 -2.457031 5.9375 -2.140625 5.78125 -1.703125 C 5.625 -1.273438 5.503906 -0.890625 5.421875 -0.546875 C 5.273438 -0.0351562 5.144531 0.328125 5.03125 0.546875 C 4.914062 0.773438 4.816406 0.914062 4.734375 0.96875 C 4.660156 1.019531 4.550781 1.046875 4.40625 1.046875 C 4.195312 1.046875 4.007812 0.941406 3.84375 0.734375 C 3.6875 0.523438 3.609375 0.328125 3.609375 0.140625 C 3.609375 -0.148438 3.710938 -0.640625 3.921875 -1.328125 C 4.128906 -2.015625 4.320312 -2.5625 4.5 -2.96875 C 4.550781 -3.207031 4.597656 -3.394531 4.640625 -3.53125 C 4.691406 -3.675781 4.726562 -3.785156 4.75 -3.859375 C 4.78125 -3.910156 4.835938 -4.050781 4.921875 -4.28125 C 5.015625 -4.507812 5.085938 -4.722656 5.140625 -4.921875 C 5.179688 -5.160156 5.585938 -6.484375 6.359375 -8.890625 L 6.5 -9.3125 C 6.625 -9.507812 6.738281 -9.757812 6.84375 -10.0625 C 6.945312 -10.125 7 -10.257812 7 -10.46875 C 7 -10.507812 7.019531 -10.5625 7.0625 -10.625 C 7.113281 -10.695312 7.140625 -10.742188 7.140625 -10.765625 C 7.148438 -10.785156 7.164062 -10.796875 7.1875 -10.796875 C 7.207031 -10.796875 7.226562 -10.789062 7.25 -10.78125 C 7.269531 -10.769531 7.304688 -10.789062 7.359375 -10.84375 L 7.328125 -10.84375 L 6.359375 -10.75 L 5.921875 -10.71875 C 5.148438 -10.644531 4.710938 -10.597656 4.609375 -10.578125 L 4.328125 -10.5625 C 3.921875 -10.5625 3.632812 -10.640625 3.46875 -10.796875 C 3.300781 -10.960938 3.242188 -11.148438 3.296875 -11.359375 C 3.335938 -11.535156 3.441406 -11.675781 3.609375 -11.78125 C 3.773438 -11.882812 4.046875 -11.976562 4.421875 -12.0625 C 4.546875 -12.082031 4.78125 -12.117188 5.125 -12.171875 L 5.65625 -12.28125 L 6.328125 -12.359375 C 7.085938 -12.472656 7.894531 -12.550781 8.75 -12.59375 C 9.113281 -12.601562 9.414062 -12.617188 9.65625 -12.640625 C 9.894531 -12.660156 10.054688 -12.675781 10.140625 -12.6875 C 10.328125 -12.675781 10.625 -12.644531 11.03125 -12.59375 C 11.445312 -12.539062 11.75 -12.476562 11.9375 -12.40625 C 12.226562 -12.34375 12.460938 -12.222656 12.640625 -12.046875 C 12.828125 -11.878906 12.957031 -11.6875 13.03125 -11.46875 Z M 13.03125 -11.46875 "/></g></g></g><g fill="#d9d9d9" fill-opacity="1"><g transform="translate(22.551138, 24.201752)"><g><path d="M 2.453125 -0.421875 C 2.410156 -0.492188 2.296875 -0.59375 2.109375 -0.71875 C 1.929688 -0.851562 1.84375 -0.9375 1.84375 -0.96875 C 1.84375 -1.019531 1.8125 -1.09375 1.75 -1.1875 C 1.6875 -1.289062 1.628906 -1.382812 1.578125 -1.46875 C 1.472656 -1.570312 1.546875 -1.910156 1.796875 -2.484375 C 2.046875 -3.066406 2.382812 -3.753906 2.8125 -4.546875 C 2.882812 -4.628906 2.984375 -4.765625 3.109375 -4.953125 C 3.234375 -5.148438 3.316406 -5.265625 3.359375 -5.296875 C 3.359375 -5.347656 3.378906 -5.394531 3.421875 -5.4375 C 3.460938 -5.488281 3.507812 -5.515625 3.5625 -5.515625 L 3.71875 -5.828125 C 3.769531 -5.953125 4.023438 -6.238281 4.484375 -6.6875 C 4.941406 -7.132812 5.304688 -7.4375 5.578125 -7.59375 C 5.828125 -7.757812 6.097656 -7.84375 6.390625 -7.84375 C 6.703125 -7.84375 6.96875 -7.75 7.1875 -7.5625 L 7.734375 -7.109375 C 8.128906 -6.785156 8.351562 -6.597656 8.40625 -6.546875 L 9.125 -5.890625 L 8.796875 -4.90625 C 8.679688 -4.550781 8.625 -4.210938 8.625 -3.890625 C 8.625 -3.390625 8.757812 -2.921875 9.03125 -2.484375 C 9.09375 -2.335938 9.179688 -2.222656 9.296875 -2.140625 C 9.410156 -2.066406 9.5625 -2.019531 9.75 -2 C 10.03125 -1.945312 10.171875 -1.800781 10.171875 -1.5625 C 10.171875 -1.269531 10.117188 -1.050781 10.015625 -0.90625 C 9.910156 -0.757812 9.785156 -0.664062 9.640625 -0.625 C 9.429688 -0.601562 9.285156 -0.59375 9.203125 -0.59375 C 8.828125 -0.59375 8.476562 -0.691406 8.15625 -0.890625 C 7.84375 -1.085938 7.566406 -1.421875 7.328125 -1.890625 C 7.273438 -1.972656 7.207031 -2.117188 7.125 -2.328125 C 7.039062 -2.546875 6.992188 -2.691406 6.984375 -2.765625 C 6.890625 -2.628906 6.734375 -2.457031 6.515625 -2.25 C 5.160156 -0.882812 4.0625 -0.203125 3.21875 -0.203125 C 2.925781 -0.203125 2.671875 -0.273438 2.453125 -0.421875 Z M 3.53125 -2.0625 C 3.75 -2.03125 4.160156 -2.265625 4.765625 -2.765625 C 4.828125 -2.816406 4.894531 -2.878906 4.96875 -2.953125 C 5.050781 -3.023438 5.140625 -3.101562 5.234375 -3.1875 C 5.609375 -3.488281 5.894531 -3.738281 6.09375 -3.9375 C 6.300781 -4.144531 6.507812 -4.394531 6.71875 -4.6875 L 7.15625 -5.390625 C 7.019531 -5.679688 6.898438 -5.875 6.796875 -5.96875 C 6.691406 -6.070312 6.585938 -6.125 6.484375 -6.125 C 6.222656 -6.125 5.894531 -5.890625 5.5 -5.421875 C 5.101562 -4.953125 4.628906 -4.242188 4.078125 -3.296875 C 3.929688 -3.054688 3.8125 -2.804688 3.71875 -2.546875 C 3.625 -2.296875 3.5625 -2.132812 3.53125 -2.0625 Z M 3.53125 -2.0625 "/></g></g></g><g fill="#d9d9d9" fill-opacity="1"><g transform="translate(30.972538, 24.201752)"><g><path d="M 8.734375 -0.46875 C 7.898438 -0.5 7.484375 -0.96875 7.484375 -1.875 C 7.484375 -2.125 7.503906 -2.367188 7.546875 -2.609375 C 7.578125 -2.898438 7.59375 -3.101562 7.59375 -3.21875 L 7.59375 -3.53125 C 7.550781 -3.800781 7.460938 -3.9375 7.328125 -3.9375 C 7.097656 -3.9375 6.660156 -3.707031 6.015625 -3.25 C 5.378906 -2.789062 4.710938 -2.25 4.015625 -1.625 C 3.804688 -1.394531 3.628906 -1.179688 3.484375 -0.984375 C 3.347656 -0.816406 3.242188 -0.710938 3.171875 -0.671875 C 3.109375 -0.628906 3.003906 -0.609375 2.859375 -0.609375 C 2.679688 -0.640625 2.472656 -0.78125 2.234375 -1.03125 C 1.992188 -1.28125 1.835938 -1.503906 1.765625 -1.703125 C 1.765625 -2.066406 1.828125 -2.414062 1.953125 -2.75 C 2.085938 -3.09375 2.285156 -3.519531 2.546875 -4.03125 C 2.671875 -4.425781 2.820312 -4.820312 3 -5.21875 C 3.195312 -5.675781 3.335938 -6.023438 3.421875 -6.265625 C 3.515625 -6.515625 3.570312 -6.769531 3.59375 -7.03125 C 3.59375 -7.050781 3.585938 -7.0625 3.578125 -7.0625 C 3.578125 -7.113281 3.597656 -7.15625 3.640625 -7.1875 C 3.679688 -7.226562 3.726562 -7.25 3.78125 -7.25 C 3.800781 -7.289062 3.878906 -7.3125 4.015625 -7.3125 C 4.359375 -7.3125 4.65625 -7.21875 4.90625 -7.03125 C 5.15625 -6.851562 5.28125 -6.570312 5.28125 -6.1875 C 5.28125 -5.988281 5.242188 -5.800781 5.171875 -5.625 C 5.097656 -5.445312 4.960938 -5.15625 4.765625 -4.75 L 4.546875 -4.3125 C 4.503906 -4.226562 4.441406 -4.109375 4.359375 -3.953125 C 4.285156 -3.804688 4.25 -3.710938 4.25 -3.671875 C 4.582031 -3.898438 4.972656 -4.195312 5.421875 -4.5625 C 6.078125 -5.09375 6.613281 -5.5 7.03125 -5.78125 C 7.457031 -6.070312 7.769531 -6.21875 7.96875 -6.21875 C 8.132812 -6.21875 8.375 -6.125 8.6875 -5.9375 C 9 -5.75 9.179688 -5.578125 9.234375 -5.421875 C 9.234375 -5.328125 9.222656 -5.1875 9.203125 -5 C 9.179688 -4.8125 9.164062 -4.644531 9.15625 -4.5 L 9.171875 -3.890625 C 9.179688 -3.785156 9.1875 -3.628906 9.1875 -3.421875 C 9.1875 -2.992188 9.160156 -2.695312 9.109375 -2.53125 C 9.117188 -2.519531 9.128906 -2.5 9.140625 -2.46875 C 9.160156 -2.445312 9.171875 -2.425781 9.171875 -2.40625 L 9.15625 -2.375 C 9.164062 -2.238281 9.234375 -2.023438 9.359375 -1.734375 C 9.492188 -1.441406 9.5625 -1.285156 9.5625 -1.265625 C 9.5625 -1.117188 9.46875 -0.957031 9.28125 -0.78125 C 9.09375 -0.601562 8.910156 -0.5 8.734375 -0.46875 Z M 8.734375 -0.46875 "/></g></g></g><g fill="#d9d9d9" fill-opacity="1"><g transform="translate(39.650931, 24.201752)"><g><path d="M 3.53125 -1.046875 C 3.394531 -1.148438 3.195312 -1.597656 2.9375 -2.390625 C 2.6875 -3.179688 2.507812 -3.921875 2.40625 -4.609375 C 2.351562 -4.878906 2.25 -5.253906 2.09375 -5.734375 C 2.070312 -5.835938 2.0625 -5.921875 2.0625 -5.984375 C 2.0625 -6.179688 2.113281 -6.378906 2.21875 -6.578125 C 2.320312 -6.785156 2.4375 -6.929688 2.5625 -7.015625 C 2.625 -7.054688 2.742188 -7.085938 2.921875 -7.109375 C 3.097656 -7.128906 3.21875 -7.128906 3.28125 -7.109375 C 3.570312 -7.003906 3.835938 -6.203125 4.078125 -4.703125 C 4.128906 -4.296875 4.171875 -4 4.203125 -3.8125 C 4.234375 -3.625 4.25 -3.5 4.25 -3.4375 C 4.28125 -3.363281 4.304688 -3.269531 4.328125 -3.15625 C 4.359375 -3.050781 4.382812 -2.976562 4.40625 -2.9375 C 4.4375 -2.90625 4.484375 -2.921875 4.546875 -2.984375 C 4.691406 -3.128906 4.910156 -3.394531 5.203125 -3.78125 C 5.347656 -3.957031 5.5625 -4.257812 5.84375 -4.6875 L 6.421875 -5.453125 C 6.578125 -5.660156 6.785156 -5.890625 7.046875 -6.140625 C 7.316406 -6.390625 7.523438 -6.535156 7.671875 -6.578125 C 7.859375 -6.609375 8.003906 -6.570312 8.109375 -6.46875 C 8.222656 -6.375 8.28125 -6.238281 8.28125 -6.0625 C 8.28125 -5.8125 8.175781 -5.539062 7.96875 -5.25 C 7.882812 -5.144531 7.800781 -5.003906 7.71875 -4.828125 C 7.632812 -4.648438 7.578125 -4.550781 7.546875 -4.53125 C 7.398438 -4.238281 7.132812 -3.828125 6.75 -3.296875 C 6.363281 -2.773438 6.101562 -2.445312 5.96875 -2.3125 C 5.9375 -2.28125 5.828125 -2.1875 5.640625 -2.03125 C 5.453125 -1.875 5.28125 -1.6875 5.125 -1.46875 C 4.707031 -1.070312 4.320312 -0.875 3.96875 -0.875 C 3.800781 -0.875 3.65625 -0.929688 3.53125 -1.046875 Z M 3.53125 -1.046875 "/></g></g></g><g fill="#d9d9d9" fill-opacity="1"><g transform="translate(45.798905, 24.201752)"><g><path d="M 4.171875 -8.265625 C 4.035156 -8.359375 3.925781 -8.472656 3.84375 -8.609375 C 3.769531 -8.753906 3.726562 -8.894531 3.71875 -9.03125 C 3.707031 -9.164062 3.71875 -9.242188 3.75 -9.265625 C 3.832031 -9.359375 3.910156 -9.484375 3.984375 -9.640625 C 4.066406 -9.796875 4.128906 -9.910156 4.171875 -9.984375 C 4.273438 -10.222656 4.359375 -10.394531 4.421875 -10.5 C 4.515625 -10.675781 4.601562 -10.773438 4.6875 -10.796875 C 4.789062 -10.847656 4.875 -10.875 4.9375 -10.875 C 5.113281 -10.875 5.300781 -10.8125 5.5 -10.6875 C 5.707031 -10.570312 5.863281 -10.4375 5.96875 -10.28125 C 6.0625 -10.070312 6.109375 -9.882812 6.109375 -9.71875 C 6.109375 -9.40625 5.957031 -9.054688 5.65625 -8.671875 C 5.519531 -8.503906 5.359375 -8.375 5.171875 -8.28125 C 4.992188 -8.1875 4.8125 -8.140625 4.625 -8.140625 C 4.4375 -8.140625 4.285156 -8.179688 4.171875 -8.265625 Z M 2.03125 -0.34375 C 1.851562 -0.519531 1.765625 -0.847656 1.765625 -1.328125 C 1.765625 -1.578125 1.796875 -1.765625 1.859375 -1.890625 C 1.859375 -1.960938 1.867188 -2.039062 1.890625 -2.125 C 1.921875 -2.21875 1.9375 -2.28125 1.9375 -2.3125 C 1.925781 -2.394531 1.976562 -2.613281 2.09375 -2.96875 C 2.25 -3.320312 2.445312 -3.867188 2.6875 -4.609375 C 2.9375 -5.347656 3.109375 -5.875 3.203125 -6.1875 C 3.203125 -6.25 3.226562 -6.300781 3.28125 -6.34375 C 3.332031 -6.394531 3.410156 -6.425781 3.515625 -6.4375 C 3.660156 -6.488281 3.84375 -6.425781 4.0625 -6.25 C 4.289062 -6.070312 4.476562 -5.875 4.625 -5.65625 C 4.707031 -5.570312 4.75 -5.46875 4.75 -5.34375 C 4.75 -5.144531 4.660156 -4.863281 4.484375 -4.5 C 4.421875 -4.363281 4.359375 -4.1875 4.296875 -3.96875 C 4.234375 -3.757812 4.1875 -3.5625 4.15625 -3.375 C 3.988281 -3.019531 3.863281 -2.691406 3.78125 -2.390625 C 3.738281 -2.222656 3.710938 -2.09375 3.703125 -2 C 3.609375 -1.507812 3.519531 -1.191406 3.4375 -1.046875 C 3.363281 -0.710938 3.253906 -0.460938 3.109375 -0.296875 C 2.960938 -0.140625 2.796875 -0.0625 2.609375 -0.0625 C 2.378906 -0.0625 2.1875 -0.15625 2.03125 -0.34375 Z M 2.03125 -0.34375 "/></g></g></g><g fill="#d9d9d9" fill-opacity="1"><g transform="translate(49.278081, 24.201752)"><g><path d="M 2.359375 -0.53125 C 2.171875 -0.675781 2.023438 -0.8125 1.921875 -0.9375 C 1.816406 -1.070312 1.78125 -1.257812 1.8125 -1.5 C 1.851562 -1.945312 1.953125 -2.46875 2.109375 -3.0625 L 2.21875 -3.453125 C 2.25 -3.816406 2.453125 -4.519531 2.828125 -5.5625 C 3.210938 -6.613281 3.53125 -7.320312 3.78125 -7.6875 C 3.90625 -7.820312 4.128906 -7.890625 4.453125 -7.890625 C 4.710938 -7.890625 4.894531 -7.835938 5 -7.734375 C 5.101562 -7.648438 5.15625 -7.515625 5.15625 -7.328125 C 5.15625 -7.023438 4.960938 -6.492188 4.578125 -5.734375 L 4.390625 -5.3125 C 4.296875 -5.144531 4.21875 -4.988281 4.15625 -4.84375 C 4.101562 -4.695312 4.109375 -4.628906 4.171875 -4.640625 C 4.316406 -4.890625 4.664062 -5.234375 5.21875 -5.671875 C 5.78125 -6.109375 6.171875 -6.378906 6.390625 -6.484375 C 6.472656 -6.535156 6.585938 -6.585938 6.734375 -6.640625 C 6.878906 -6.691406 6.976562 -6.734375 7.03125 -6.765625 C 7.269531 -6.878906 7.539062 -6.9375 7.84375 -6.9375 C 8.050781 -6.9375 8.234375 -6.90625 8.390625 -6.84375 C 8.546875 -6.789062 8.648438 -6.703125 8.703125 -6.578125 C 8.710938 -6.484375 8.742188 -6.410156 8.796875 -6.359375 C 8.859375 -6.304688 8.90625 -6.273438 8.9375 -6.265625 C 8.976562 -6.265625 9.003906 -6.25 9.015625 -6.21875 C 9.023438 -6.1875 9.03125 -6.160156 9.03125 -6.140625 C 9.03125 -6.035156 8.9375 -5.898438 8.75 -5.734375 C 8.570312 -5.578125 8.382812 -5.488281 8.1875 -5.46875 C 8.039062 -5.457031 7.882812 -5.425781 7.71875 -5.375 C 7.5625 -5.320312 7.40625 -5.253906 7.25 -5.171875 L 6.734375 -4.875 C 6.285156 -4.65625 5.90625 -4.4375 5.59375 -4.21875 C 5.289062 -4 4.984375 -3.71875 4.671875 -3.375 C 4.597656 -3.3125 4.5 -3.21875 4.375 -3.09375 C 4.25 -2.976562 4.140625 -2.84375 4.046875 -2.6875 C 3.953125 -2.59375 3.851562 -2.351562 3.75 -1.96875 C 3.65625 -1.582031 3.609375 -1.34375 3.609375 -1.25 C 3.597656 -1.207031 3.570312 -1.125 3.53125 -1 C 3.5 -0.882812 3.441406 -0.78125 3.359375 -0.6875 C 3.242188 -0.539062 3.144531 -0.4375 3.0625 -0.375 C 2.976562 -0.3125 2.894531 -0.28125 2.8125 -0.28125 C 2.675781 -0.28125 2.523438 -0.363281 2.359375 -0.53125 Z M 2.359375 -0.53125 "/></g></g></g><g fill="#ff5757" fill-opacity="1"><g transform="translate(55.991421, 24.201752)"><g><path d="M 13.03125 -11.46875 C 13.039062 -11.414062 13.046875 -11.347656 13.046875 -11.265625 C 13.046875 -11.097656 12.96875 -10.972656 12.8125 -10.890625 C 12.726562 -10.859375 12.570312 -10.804688 12.34375 -10.734375 C 12.113281 -10.671875 11.925781 -10.640625 11.78125 -10.640625 C 11.664062 -10.640625 11.570312 -10.648438 11.5 -10.671875 C 11.375 -10.785156 11.21875 -10.867188 11.03125 -10.921875 C 10.84375 -10.984375 10.457031 -11.03125 9.875 -11.0625 C 9.707031 -11.039062 9.554688 -11.03125 9.421875 -11.03125 C 9.296875 -11.03125 9.191406 -11.023438 9.109375 -11.015625 C 9.003906 -10.671875 8.875 -10.347656 8.71875 -10.046875 C 8.664062 -9.796875 8.59375 -9.570312 8.5 -9.375 C 8.40625 -9.101562 8.363281 -8.953125 8.375 -8.921875 C 8.34375 -8.859375 8.21875 -8.519531 8 -7.90625 C 7.789062 -7.300781 7.59375 -6.707031 7.40625 -6.125 C 7.28125 -5.71875 7.179688 -5.421875 7.109375 -5.234375 C 7.046875 -5.109375 6.960938 -4.898438 6.859375 -4.609375 C 6.765625 -4.328125 6.695312 -4.128906 6.65625 -4.015625 L 6.171875 -2.65625 C 6.066406 -2.457031 5.9375 -2.140625 5.78125 -1.703125 C 5.625 -1.273438 5.503906 -0.890625 5.421875 -0.546875 C 5.273438 -0.0351562 5.144531 0.328125 5.03125 0.546875 C 4.914062 0.773438 4.816406 0.914062 4.734375 0.96875 C 4.660156 1.019531 4.550781 1.046875 4.40625 1.046875 C 4.195312 1.046875 4.007812 0.941406 3.84375 0.734375 C 3.6875 0.523438 3.609375 0.328125 3.609375 0.140625 C 3.609375 -0.148438 3.710938 -0.640625 3.921875 -1.328125 C 4.128906 -2.015625 4.320312 -2.5625 4.5 -2.96875 C 4.550781 -3.207031 4.597656 -3.394531 4.640625 -3.53125 C 4.691406 -3.675781 4.726562 -3.785156 4.75 -3.859375 C 4.78125 -3.910156 4.835938 -4.050781 4.921875 -4.28125 C 5.015625 -4.507812 5.085938 -4.722656 5.140625 -4.921875 C 5.179688 -5.160156 5.585938 -6.484375 6.359375 -8.890625 L 6.5 -9.3125 C 6.625 -9.507812 6.738281 -9.757812 6.84375 -10.0625 C 6.945312 -10.125 7 -10.257812 7 -10.46875 C 7 -10.507812 7.019531 -10.5625 7.0625 -10.625 C 7.113281 -10.695312 7.140625 -10.742188 7.140625 -10.765625 C 7.148438 -10.785156 7.164062 -10.796875 7.1875 -10.796875 C 7.207031 -10.796875 7.226562 -10.789062 7.25 -10.78125 C 7.269531 -10.769531 7.304688 -10.789062 7.359375 -10.84375 L 7.328125 -10.84375 L 6.359375 -10.75 L 5.921875 -10.71875 C 5.148438 -10.644531 4.710938 -10.597656 4.609375 -10.578125 L 4.328125 -10.5625 C 3.921875 -10.5625 3.632812 -10.640625 3.46875 -10.796875 C 3.300781 -10.960938 3.242188 -11.148438 3.296875 -11.359375 C 3.335938 -11.535156 3.441406 -11.675781 3.609375 -11.78125 C 3.773438 -11.882812 4.046875 -11.976562 4.421875 -12.0625 C 4.546875 -12.082031 4.78125 -12.117188 5.125 -12.171875 L 5.65625 -12.28125 L 6.328125 -12.359375 C 7.085938 -12.472656 7.894531 -12.550781 8.75 -12.59375 C 9.113281 -12.601562 9.414062 -12.617188 9.65625 -12.640625 C 9.894531 -12.660156 10.054688 -12.675781 10.140625 -12.6875 C 10.328125 -12.675781 10.625 -12.644531 11.03125 -12.59375 C 11.445312 -12.539062 11.75 -12.476562 11.9375 -12.40625 C 12.226562 -12.34375 12.460938 -12.222656 12.640625 -12.046875 C 12.828125 -11.878906 12.957031 -11.6875 13.03125 -11.46875 Z M 13.03125 -11.46875 "/></g></g></g><g fill="#ff5757" fill-opacity="1"><g transform="translate(64.650045, 24.201752)"><g><path d="M 2.453125 -0.421875 C 2.410156 -0.492188 2.296875 -0.59375 2.109375 -0.71875 C 1.929688 -0.851562 1.84375 -0.9375 1.84375 -0.96875 C 1.84375 -1.019531 1.8125 -1.09375 1.75 -1.1875 C 1.6875 -1.289062 1.628906 -1.382812 1.578125 -1.46875 C 1.472656 -1.570312 1.546875 -1.910156 1.796875 -2.484375 C 2.046875 -3.066406 2.382812 -3.753906 2.8125 -4.546875 C 2.882812 -4.628906 2.984375 -4.765625 3.109375 -4.953125 C 3.234375 -5.148438 3.316406 -5.265625 3.359375 -5.296875 C 3.359375 -5.347656 3.378906 -5.394531 3.421875 -5.4375 C 3.460938 -5.488281 3.507812 -5.515625 3.5625 -5.515625 L 3.71875 -5.828125 C 3.769531 -5.953125 4.023438 -6.238281 4.484375 -6.6875 C 4.941406 -7.132812 5.304688 -7.4375 5.578125 -7.59375 C 5.828125 -7.757812 6.097656 -7.84375 6.390625 -7.84375 C 6.703125 -7.84375 6.96875 -7.75 7.1875 -7.5625 L 7.734375 -7.109375 C 8.128906 -6.785156 8.351562 -6.597656 8.40625 -6.546875 L 9.125 -5.890625 L 8.796875 -4.90625 C 8.679688 -4.550781 8.625 -4.210938 8.625 -3.890625 C 8.625 -3.390625 8.757812 -2.921875 9.03125 -2.484375 C 9.09375 -2.335938 9.179688 -2.222656 9.296875 -2.140625 C 9.410156 -2.066406 9.5625 -2.019531 9.75 -2 C 10.03125 -1.945312 10.171875 -1.800781 10.171875 -1.5625 C 10.171875 -1.269531 10.117188 -1.050781 10.015625 -0.90625 C 9.910156 -0.757812 9.785156 -0.664062 9.640625 -0.625 C 9.429688 -0.601562 9.285156 -0.59375 9.203125 -0.59375 C 8.828125 -0.59375 8.476562 -0.691406 8.15625 -0.890625 C 7.84375 -1.085938 7.566406 -1.421875 7.328125 -1.890625 C 7.273438 -1.972656 7.207031 -2.117188 7.125 -2.328125 C 7.039062 -2.546875 6.992188 -2.691406 6.984375 -2.765625 C 6.890625 -2.628906 6.734375 -2.457031 6.515625 -2.25 C 5.160156 -0.882812 4.0625 -0.203125 3.21875 -0.203125 C 2.925781 -0.203125 2.671875 -0.273438 2.453125 -0.421875 Z M 3.53125 -2.0625 C 3.75 -2.03125 4.160156 -2.265625 4.765625 -2.765625 C 4.828125 -2.816406 4.894531 -2.878906 4.96875 -2.953125 C 5.050781 -3.023438 5.140625 -3.101562 5.234375 -3.1875 C 5.609375 -3.488281 5.894531 -3.738281 6.09375 -3.9375 C 6.300781 -4.144531 6.507812 -4.394531 6.71875 -4.6875 L 7.15625 -5.390625 C 7.019531 -5.679688 6.898438 -5.875 6.796875 -5.96875 C 6.691406 -6.070312 6.585938 -6.125 6.484375 -6.125 C 6.222656 -6.125 5.894531 -5.890625 5.5 -5.421875 C 5.101562 -4.953125 4.628906 -4.242188 4.078125 -3.296875 C 3.929688 -3.054688 3.8125 -2.804688 3.71875 -2.546875 C 3.625 -2.296875 3.5625 -2.132812 3.53125 -2.0625 Z M 3.53125 -2.0625 "/></g></g></g><g fill="#ff5757" fill-opacity="1"><g transform="translate(73.071445, 24.201752)"><g><path d="M 8.734375 -0.46875 C 7.898438 -0.5 7.484375 -0.96875 7.484375 -1.875 C 7.484375 -2.125 7.503906 -2.367188 7.546875 -2.609375 C 7.578125 -2.898438 7.59375 -3.101562 7.59375 -3.21875 L 7.59375 -3.53125 C 7.550781 -3.800781 7.460938 -3.9375 7.328125 -3.9375 C 7.097656 -3.9375 6.660156 -3.707031 6.015625 -3.25 C 5.378906 -2.789062 4.710938 -2.25 4.015625 -1.625 C 3.804688 -1.394531 3.628906 -1.179688 3.484375 -0.984375 C 3.347656 -0.816406 3.242188 -0.710938 3.171875 -0.671875 C 3.109375 -0.628906 3.003906 -0.609375 2.859375 -0.609375 C 2.679688 -0.640625 2.472656 -0.78125 2.234375 -1.03125 C 1.992188 -1.28125 1.835938 -1.503906 1.765625 -1.703125 C 1.765625 -2.066406 1.828125 -2.414062 1.953125 -2.75 C 2.085938 -3.09375 2.285156 -3.519531 2.546875 -4.03125 C 2.671875 -4.425781 2.820312 -4.820312 3 -5.21875 C 3.195312 -5.675781 3.335938 -6.023438 3.421875 -6.265625 C 3.515625 -6.515625 3.570312 -6.769531 3.59375 -7.03125 C 3.59375 -7.050781 3.585938 -7.0625 3.578125 -7.0625 C 3.578125 -7.113281 3.597656 -7.15625 3.640625 -7.1875 C 3.679688 -7.226562 3.726562 -7.25 3.78125 -7.25 C 3.800781 -7.289062 3.878906 -7.3125 4.015625 -7.3125 C 4.359375 -7.3125 4.65625 -7.21875 4.90625 -7.03125 C 5.15625 -6.851562 5.28125 -6.570312 5.28125 -6.1875 C 5.28125 -5.988281 5.242188 -5.800781 5.171875 -5.625 C 5.097656 -5.445312 4.960938 -5.15625 4.765625 -4.75 L 4.546875 -4.3125 C 4.503906 -4.226562 4.441406 -4.109375 4.359375 -3.953125 C 4.285156 -3.804688 4.25 -3.710938 4.25 -3.671875 C 4.582031 -3.898438 4.972656 -4.195312 5.421875 -4.5625 C 6.078125 -5.09375 6.613281 -5.5 7.03125 -5.78125 C 7.457031 -6.070312 7.769531 -6.21875 7.96875 -6.21875 C 8.132812 -6.21875 8.375 -6.125 8.6875 -5.9375 C 9 -5.75 9.179688 -5.578125 9.234375 -5.421875 C 9.234375 -5.328125 9.222656 -5.1875 9.203125 -5 C 9.179688 -4.8125 9.164062 -4.644531 9.15625 -4.5 L 9.171875 -3.890625 C 9.179688 -3.785156 9.1875 -3.628906 9.1875 -3.421875 C 9.1875 -2.992188 9.160156 -2.695312 9.109375 -2.53125 C 9.117188 -2.519531 9.128906 -2.5 9.140625 -2.46875 C 9.160156 -2.445312 9.171875 -2.425781 9.171875 -2.40625 L 9.15625 -2.375 C 9.164062 -2.238281 9.234375 -2.023438 9.359375 -1.734375 C 9.492188 -1.441406 9.5625 -1.285156 9.5625 -1.265625 C 9.5625 -1.117188 9.46875 -0.957031 9.28125 -0.78125 C 9.09375 -0.601562 8.910156 -0.5 8.734375 -0.46875 Z M 8.734375 -0.46875 "/></g></g></g><g fill="#ff5757" fill-opacity="1"><g transform="translate(81.749838, 24.201752)"><g><path d="M 4.203125 -9.40625 C 4.097656 -9.539062 4.046875 -9.726562 4.046875 -9.96875 C 4.046875 -10.175781 4.085938 -10.394531 4.171875 -10.625 C 4.253906 -10.851562 4.359375 -11.054688 4.484375 -11.234375 C 4.671875 -11.453125 4.941406 -11.5625 5.296875 -11.5625 C 5.535156 -11.5625 5.734375 -11.503906 5.890625 -11.390625 C 6.078125 -11.066406 6.171875 -10.796875 6.171875 -10.578125 C 6.171875 -10.378906 6.117188 -10.207031 6.015625 -10.0625 C 5.785156 -9.8125 5.546875 -9.617188 5.296875 -9.484375 C 5.046875 -9.359375 4.816406 -9.296875 4.609375 -9.296875 C 4.429688 -9.296875 4.296875 -9.332031 4.203125 -9.40625 Z M 1.28125 4.125 C 1.007812 4.414062 0.65625 4.5625 0.21875 4.5625 C -0.257812 4.5625 -0.660156 4.390625 -0.984375 4.046875 C -1.234375 3.734375 -1.414062 3.410156 -1.53125 3.078125 C -1.65625 2.753906 -1.71875 2.457031 -1.71875 2.1875 C -1.71875 1.976562 -1.675781 1.8125 -1.59375 1.6875 C -1.519531 1.5625 -1.410156 1.5 -1.265625 1.5 C -1.148438 1.5 -0.988281 1.554688 -0.78125 1.671875 C -0.570312 1.796875 -0.46875 1.925781 -0.46875 2.0625 C -0.46875 2.289062 -0.445312 2.472656 -0.40625 2.609375 C -0.363281 2.742188 -0.257812 2.816406 -0.09375 2.828125 C -0.0625 2.835938 -0.0078125 2.84375 0.0625 2.84375 C 0.3125 2.84375 0.554688 2.660156 0.796875 2.296875 C 1.015625 2.003906 1.269531 1.460938 1.5625 0.671875 C 1.863281 -0.109375 2.035156 -0.550781 2.078125 -0.65625 C 2.179688 -1.019531 2.273438 -1.425781 2.359375 -1.875 C 2.441406 -2.320312 2.5 -2.609375 2.53125 -2.734375 L 2.78125 -4.109375 C 2.820312 -4.410156 2.878906 -4.695312 2.953125 -4.96875 C 3.023438 -5.25 3.066406 -5.425781 3.078125 -5.5 C 3.078125 -5.820312 3.125 -6.078125 3.21875 -6.265625 C 3.21875 -6.429688 3.25 -6.644531 3.3125 -6.90625 C 3.375 -7.164062 3.40625 -7.328125 3.40625 -7.390625 C 3.457031 -7.441406 3.597656 -7.425781 3.828125 -7.34375 C 4.066406 -7.257812 4.238281 -7.164062 4.34375 -7.0625 C 4.5 -6.882812 4.613281 -6.71875 4.6875 -6.5625 C 4.757812 -6.414062 4.796875 -6.160156 4.796875 -5.796875 C 4.796875 -5.566406 4.78125 -5.257812 4.75 -4.875 C 4.75 -4.71875 4.679688 -4.316406 4.546875 -3.671875 C 4.410156 -3.023438 4.285156 -2.46875 4.171875 -2 C 4.109375 -1.75 4.0625 -1.582031 4.03125 -1.5 C 3.945312 -1.226562 3.894531 -1.007812 3.875 -0.84375 C 3.863281 -0.738281 3.773438 -0.472656 3.609375 -0.046875 C 3.453125 0.335938 3.363281 0.609375 3.34375 0.765625 C 3.300781 1.046875 3.140625 1.476562 2.859375 2.0625 C 2.773438 2.289062 2.535156 2.65625 2.140625 3.15625 C 1.753906 3.65625 1.46875 3.976562 1.28125 4.125 Z M 1.28125 4.125 "/></g></g></g><g fill="#ff5757" fill-opacity="1"><g transform="translate(85.565086, 24.201752)"><g><path d="M 6.640625 -0.046875 C 6.523438 -0.160156 6.429688 -0.3125 6.359375 -0.5 C 6.285156 -0.695312 6.195312 -0.992188 6.09375 -1.390625 C 6.0625 -1.460938 6.046875 -1.570312 6.046875 -1.71875 C 6.046875 -1.875 6.046875 -1.988281 6.046875 -2.0625 C 5.992188 -1.9375 5.925781 -1.804688 5.84375 -1.671875 C 5.769531 -1.535156 5.691406 -1.441406 5.609375 -1.390625 C 5.304688 -1.078125 5.003906 -0.851562 4.703125 -0.71875 C 4.285156 -0.445312 3.921875 -0.3125 3.609375 -0.3125 C 3.242188 -0.3125 2.929688 -0.484375 2.671875 -0.828125 C 2.242188 -1.171875 2.03125 -1.582031 2.03125 -2.0625 C 2.03125 -2.125 2.046875 -2.25 2.078125 -2.4375 C 2.097656 -2.914062 2.164062 -3.378906 2.28125 -3.828125 C 2.394531 -4.273438 2.609375 -4.847656 2.921875 -5.546875 L 3.828125 -7.359375 C 3.898438 -7.378906 4.007812 -7.390625 4.15625 -7.390625 C 4.363281 -7.390625 4.554688 -7.347656 4.734375 -7.265625 C 4.921875 -7.191406 5.023438 -7.085938 5.046875 -6.953125 C 5.078125 -6.898438 5.09375 -6.800781 5.09375 -6.65625 C 5.09375 -6.238281 4.914062 -5.679688 4.5625 -4.984375 L 4.40625 -4.609375 C 4.164062 -4.035156 3.992188 -3.59375 3.890625 -3.28125 C 3.785156 -2.96875 3.734375 -2.703125 3.734375 -2.484375 C 3.734375 -2.273438 3.8125 -2.140625 3.96875 -2.078125 C 4.039062 -2.035156 4.117188 -2.015625 4.203125 -2.015625 C 4.472656 -2.015625 4.796875 -2.21875 5.171875 -2.625 C 5.546875 -3.03125 5.929688 -3.71875 6.328125 -4.6875 C 6.515625 -5.132812 6.625 -5.59375 6.65625 -6.0625 C 6.632812 -6.207031 6.675781 -6.363281 6.78125 -6.53125 C 6.882812 -6.707031 7.019531 -6.847656 7.1875 -6.953125 C 7.25 -7.035156 7.320312 -7.097656 7.40625 -7.140625 C 7.5 -7.191406 7.5625 -7.191406 7.59375 -7.140625 L 7.90625 -7.15625 C 7.945312 -7.164062 8.007812 -7.101562 8.09375 -6.96875 C 8.175781 -6.84375 8.238281 -6.765625 8.28125 -6.734375 C 8.414062 -6.628906 8.484375 -6.421875 8.484375 -6.109375 C 8.484375 -5.671875 8.320312 -5.070312 8 -4.3125 C 7.75 -3.78125 7.582031 -3.375 7.5 -3.09375 C 7.414062 -2.8125 7.367188 -2.535156 7.359375 -2.265625 C 7.359375 -1.992188 7.378906 -1.78125 7.421875 -1.625 C 7.460938 -1.476562 7.578125 -1.328125 7.765625 -1.171875 C 7.972656 -1.023438 8.0625 -0.679688 8.03125 -0.140625 C 8 -0.046875 7.921875 0.0234375 7.796875 0.078125 C 7.679688 0.128906 7.539062 0.15625 7.375 0.15625 C 7.082031 0.15625 6.835938 0.0859375 6.640625 -0.046875 Z M 6.640625 -0.046875 "/></g></g></g><g fill="#ff5757" fill-opacity="1"><g transform="translate(92.484052, 24.201752)"><g><path d="M 11.4375 -0.453125 C 11.269531 -0.453125 11.140625 -0.476562 11.046875 -0.53125 C 10.941406 -0.570312 10.804688 -0.664062 10.640625 -0.8125 C 10.472656 -0.96875 10.328125 -1.1875 10.203125 -1.46875 C 10.078125 -1.75 10.015625 -2.085938 10.015625 -2.484375 C 10.015625 -2.734375 10.03125 -2.953125 10.0625 -3.140625 C 10.101562 -3.335938 10.125 -3.460938 10.125 -3.515625 C 10.125 -3.578125 10.101562 -3.609375 10.0625 -3.609375 C 9.71875 -3.609375 8.972656 -2.984375 7.828125 -1.734375 C 7.785156 -1.710938 7.753906 -1.679688 7.734375 -1.640625 C 7.566406 -1.523438 7.421875 -1.398438 7.296875 -1.265625 C 7.097656 -1.078125 6.9375 -0.941406 6.8125 -0.859375 C 6.6875 -0.773438 6.550781 -0.726562 6.40625 -0.71875 C 6.3125 -0.71875 6.210938 -0.753906 6.109375 -0.828125 L 5.890625 -1.015625 C 5.828125 -1.046875 5.769531 -1.113281 5.71875 -1.21875 C 5.664062 -1.332031 5.640625 -1.429688 5.640625 -1.515625 L 5.640625 -1.625 L 6.09375 -2.9375 C 6.414062 -3.664062 6.578125 -4.097656 6.578125 -4.234375 C 6.578125 -4.253906 6.570312 -4.265625 6.5625 -4.265625 C 6.445312 -4.285156 6.269531 -4.1875 6.03125 -3.96875 C 5.800781 -3.75 5.476562 -3.40625 5.0625 -2.9375 L 4.171875 -2.015625 C 4.066406 -1.910156 3.785156 -1.59375 3.328125 -1.0625 C 3.035156 -0.707031 2.878906 -0.53125 2.859375 -0.53125 C 2.578125 -0.53125 2.316406 -0.640625 2.078125 -0.859375 C 1.847656 -1.085938 1.734375 -1.363281 1.734375 -1.6875 C 1.734375 -1.84375 1.757812 -2.050781 1.8125 -2.3125 C 1.863281 -2.570312 1.925781 -2.847656 2 -3.140625 C 2.019531 -3.242188 2.046875 -3.363281 2.078125 -3.5 C 2.117188 -3.632812 2.15625 -3.785156 2.1875 -3.953125 C 2.21875 -4.085938 2.25 -4.234375 2.28125 -4.390625 C 2.3125 -4.546875 2.378906 -4.75 2.484375 -5 C 2.597656 -5.257812 2.75 -5.625 2.9375 -6.09375 C 3 -6.257812 3.03125 -6.4375 3.03125 -6.625 C 3.03125 -6.71875 3.019531 -6.804688 3 -6.890625 C 2.988281 -6.972656 2.984375 -7.03125 2.984375 -7.0625 C 2.984375 -7.257812 3.078125 -7.425781 3.265625 -7.5625 C 3.460938 -7.695312 3.675781 -7.765625 3.90625 -7.765625 C 4.25 -7.765625 4.503906 -7.640625 4.671875 -7.390625 C 4.847656 -7.148438 4.9375 -6.898438 4.9375 -6.640625 C 4.9375 -6.421875 4.882812 -6.203125 4.78125 -5.984375 L 4.5625 -5.453125 C 4.507812 -5.335938 4.414062 -5.125 4.28125 -4.8125 C 4.144531 -4.5 4.078125 -4.3125 4.078125 -4.25 C 4.078125 -4.207031 4.085938 -4.1875 4.109375 -4.1875 L 4.125 -4.1875 C 4.195312 -4.1875 4.304688 -4.257812 4.453125 -4.40625 C 4.867188 -4.800781 5.375 -5.210938 5.96875 -5.640625 C 6.570312 -6.066406 7.007812 -6.320312 7.28125 -6.40625 C 7.382812 -6.40625 7.519531 -6.351562 7.6875 -6.25 C 7.863281 -6.144531 8.015625 -6 8.140625 -5.8125 C 8.273438 -5.632812 8.34375 -5.441406 8.34375 -5.234375 L 8.328125 -5.078125 C 8.304688 -5.023438 8.242188 -4.800781 8.140625 -4.40625 C 8.046875 -4.007812 7.972656 -3.78125 7.921875 -3.71875 C 8.171875 -4.007812 8.601562 -4.367188 9.21875 -4.796875 C 9.84375 -5.222656 10.300781 -5.441406 10.59375 -5.453125 C 11.03125 -5.453125 11.3125 -5.273438 11.4375 -4.921875 C 11.570312 -4.566406 11.664062 -4.046875 11.71875 -3.359375 C 11.769531 -2.710938 11.84375 -2.28125 11.9375 -2.0625 C 11.96875 -1.976562 12.0625 -1.910156 12.21875 -1.859375 C 12.375 -1.804688 12.5 -1.742188 12.59375 -1.671875 C 12.695312 -1.597656 12.75 -1.457031 12.75 -1.25 C 12.75 -0.957031 12.617188 -0.75 12.359375 -0.625 C 12.109375 -0.507812 11.800781 -0.453125 11.4375 -0.453125 Z M 11.4375 -0.453125 "/></g></g></g><g fill="#38b6ff" fill-opacity="1"><g transform="translate(103.328066, 24.201752)"><g><path d="M 1.5625 2.265625 C 1.28125 2.285156 1.050781 2.203125 0.875 2.015625 C 0.707031 1.828125 0.625 1.554688 0.625 1.203125 C 0.625 0.765625 0.742188 0.269531 0.984375 -0.28125 C 1.015625 -0.332031 1.078125 -0.445312 1.171875 -0.625 C 1.273438 -0.8125 1.332031 -0.957031 1.34375 -1.0625 C 1.4375 -1.289062 1.832031 -2.070312 2.53125 -3.40625 C 3.238281 -4.75 3.742188 -5.695312 4.046875 -6.25 L 4.078125 -6.25 C 4.128906 -6.25 4.175781 -6.285156 4.21875 -6.359375 C 4.269531 -6.429688 4.304688 -6.519531 4.328125 -6.625 C 4.359375 -6.75 4.40625 -6.867188 4.46875 -6.984375 C 4.53125 -7.097656 4.597656 -7.164062 4.671875 -7.1875 C 4.679688 -7.226562 4.707031 -7.296875 4.75 -7.390625 C 4.800781 -7.492188 4.828125 -7.566406 4.828125 -7.609375 C 4.828125 -7.640625 4.847656 -7.6875 4.890625 -7.75 C 4.941406 -7.8125 4.96875 -7.863281 4.96875 -7.90625 C 5.238281 -8.257812 5.921875 -9.414062 7.015625 -11.375 C 8.117188 -13.332031 8.6875 -14.394531 8.71875 -14.5625 C 8.726562 -14.757812 8.851562 -14.835938 9.09375 -14.796875 C 9.1875 -14.867188 9.289062 -14.890625 9.40625 -14.859375 C 9.445312 -14.816406 9.519531 -14.738281 9.625 -14.625 C 9.738281 -14.519531 9.851562 -14.394531 9.96875 -14.25 C 10.050781 -14.144531 10.09375 -14.019531 10.09375 -13.875 C 10.09375 -13.757812 10.078125 -13.640625 10.046875 -13.515625 C 10.015625 -13.316406 9.960938 -13.148438 9.890625 -13.015625 C 9.816406 -12.890625 9.644531 -12.628906 9.375 -12.234375 L 8.828125 -11.484375 C 8.648438 -11.222656 8.351562 -10.734375 7.9375 -10.015625 C 7.519531 -9.296875 7.316406 -8.910156 7.328125 -8.859375 C 7.304688 -8.816406 7.257812 -8.734375 7.1875 -8.609375 C 7.113281 -8.492188 7.050781 -8.375 7 -8.25 C 6.851562 -8.0625 6.617188 -7.722656 6.296875 -7.234375 C 5.984375 -6.742188 5.820312 -6.472656 5.8125 -6.421875 C 5.800781 -6.398438 5.785156 -6.359375 5.765625 -6.296875 C 5.742188 -6.234375 5.703125 -6.179688 5.640625 -6.140625 C 5.609375 -6.160156 5.578125 -6.140625 5.546875 -6.078125 C 5.515625 -6.015625 5.5 -5.972656 5.5 -5.953125 C 5.519531 -5.847656 5.359375 -5.519531 5.015625 -4.96875 L 4.546875 -4.015625 C 4.453125 -3.816406 4.179688 -3.269531 3.734375 -2.375 C 3.285156 -1.476562 2.921875 -0.71875 2.640625 -0.09375 C 2.359375 0.53125 2.195312 0.9375 2.15625 1.125 C 2.101562 1.414062 2.015625 1.671875 1.890625 1.890625 C 1.773438 2.109375 1.664062 2.234375 1.5625 2.265625 Z M 1.5625 2.265625 "/></g></g></g><g fill="#38b6ff" fill-opacity="1"><g transform="translate(109.456269, 24.201752)"><g><path d="M 3.90625 -0.390625 C 3.832031 -0.367188 3.707031 -0.429688 3.53125 -0.578125 C 3.351562 -0.722656 3.242188 -0.804688 3.203125 -0.828125 C 3.140625 -0.878906 3.066406 -0.925781 2.984375 -0.96875 C 2.898438 -1.019531 2.84375 -1.0625 2.8125 -1.09375 C 2.789062 -1.125 2.773438 -1.175781 2.765625 -1.25 C 2.765625 -1.28125 2.785156 -1.347656 2.828125 -1.453125 C 2.867188 -1.566406 2.925781 -1.65625 3 -1.71875 C 3.1875 -1.875 3.609375 -2.125 4.265625 -2.46875 C 5.148438 -2.925781 5.832031 -3.300781 6.3125 -3.59375 C 6.53125 -3.726562 6.785156 -3.867188 7.078125 -4.015625 C 7.265625 -4.117188 7.382812 -4.191406 7.4375 -4.234375 C 7.5 -4.285156 7.53125 -4.363281 7.53125 -4.46875 L 7.515625 -4.625 C 7.273438 -4.90625 6.894531 -5.175781 6.375 -5.4375 C 5.851562 -5.707031 5.117188 -5.988281 4.171875 -6.28125 C 3.546875 -6.476562 3.113281 -6.671875 2.875 -6.859375 C 2.644531 -7.046875 2.53125 -7.25 2.53125 -7.46875 L 2.546875 -7.625 C 2.617188 -7.726562 2.78125 -7.820312 3.03125 -7.90625 C 3.28125 -7.988281 3.546875 -8.03125 3.828125 -8.03125 C 4.242188 -8.03125 4.585938 -7.960938 4.859375 -7.828125 C 4.992188 -7.785156 5.203125 -7.726562 5.484375 -7.65625 C 5.773438 -7.582031 6.035156 -7.492188 6.265625 -7.390625 C 6.492188 -7.285156 6.71875 -7.148438 6.9375 -6.984375 C 7.019531 -6.921875 7.140625 -6.851562 7.296875 -6.78125 C 7.691406 -6.550781 7.988281 -6.359375 8.1875 -6.203125 C 8.394531 -6.046875 8.597656 -5.828125 8.796875 -5.546875 L 9.453125 -4.765625 L 9.671875 -3.71875 C 9.546875 -3.6875 9.4375 -3.644531 9.34375 -3.59375 C 9.25 -3.539062 9.195312 -3.515625 9.1875 -3.515625 C 9.0625 -3.453125 8.859375 -3.328125 8.578125 -3.140625 C 8.023438 -2.773438 7.457031 -2.425781 6.875 -2.09375 C 5.519531 -1.394531 4.703125 -0.90625 4.421875 -0.625 C 4.359375 -0.550781 4.273438 -0.492188 4.171875 -0.453125 C 4.078125 -0.410156 3.988281 -0.390625 3.90625 -0.390625 Z M 3.90625 -0.390625 "/></g></g></g></svg>